<svg xml:space="preserve" width="164.284" height="188.523" xmlns="http://www.w3.org/2000/svg"><path d="M80.02 32.895c-2.809.804-5.641 1.617-7.946 2.253-12.883 3.559-31.355 8.457-35.527 15.305 0 0-5.82 12.891-7.746 17.813 3.101-5.352 18.66-8.524 26.39-10.266 6.645-1.5 31.11-5.949 41.063-7.609A46.183 46.183 0 0 0 80.02 32.895zm-2.489 49.417c-3.422 7.704-27.129 13.813-40.976 17.43a462.75 462.75 0 0 0-14.485 4.059A45.641 45.641 0 0 0 24.379 106a843.773 843.773 0 0 1 11.527-2.297c13.125-2.527 33.063-7.273 37.449-11.551 0 0 3.215-7.168 4.176-9.84z" style="fill:#fff;fill-opacity:1;fill-rule:nonzero;stroke:none" transform="matrix(1.33333 0 0 1.33333 -9.184 -11.136)"/><path d="M8.434 44.375v69.348l60.062 34.683 60.059-34.683V44.375L68.496 9.691z" style="fill:#3e8ebc;fill-opacity:1;fill-rule:nonzero;stroke:none" transform="matrix(1.33333 0 0 1.33333 -9.184 -11.136)"/><path d="M67.094 26.98c-28.473 0-51.551 23.086-51.551 51.559 0 7.207-4.453 15.035-6.859 22.313.347 7.558-.114 12.914 3.183 14.351 2.266 1.188 6.367 2.922 8.106 4.086 4.754 4.586 6.136 3.793 15.922 8.758 10.8 5.48 24.421 2.043 31.199 2.043 28.472 0 51.558-23.078 51.558-51.551 0-5 5.418-10.43 9.098-15.492.422-2.731 2.359-15.035 1.332-17.844-12.125-8.019-18.324-12.371-30.316-17.703-12.207-.758-25.692-.52-31.672-.52z" style="fill:#fff;fill-opacity:1;fill-rule:nonzero;stroke:none" transform="matrix(1.33333 0 0 1.33333 -9.184 -11.136)"/><path d="M69.129 24.91c-28.836 0-54.262 24.785-54.262 53.621 0 7.301-3.746 14.953-6.183 22.321-1.594 5.761.527 16.226 4.461 15.41 10.171-2.426 29.218-6.387 33.402-7.481 15.055-3.929 40.828-10.578 44.551-18.953-1.047 2.91-4.543 10.703-4.543 10.703-4.77 4.653-27.629 9.606-40.743 12.125-14.371 2.762-17.488 3.188-28.417 4.906.433 3.11 14.574 9.348 18.082 11.11 10.937 5.555 24.734 2.066 31.597 2.066 28.836 0 52.219-23.371 52.219-52.207.348-5.047 12.332-13.914 9.031-25.023-14.25 1.258-54.519 8.297-61.515 9.89-8.407 1.895-25.321 5.344-28.692 11.161 2.094-5.352 8.418-19.364 8.418-19.364 4.539-7.445 24.789-14.004 38.629-16.644 2.266-.508 15.723-2.668 25.176-4.344-5.199-6.277-17.469-9.328-41.211-9.297z" style="fill:#3e8ebc;fill-opacity:1;fill-rule:nonzero;stroke:none" transform="matrix(1.33333 0 0 1.33333 -9.184 -11.136)"/><path d="M38.074 74.75c-.937 4.383 13.129 8.625 25.813 12.637C76.57 91.402 81.91 93.57 85.02 95.566c5.042-2.414 6.199-6.019 6.199-6.019 1.41-5.555-11.235-12.656-19.668-15.774-8.43-3.113-10.317-4.609-16.434-7.617-16.101 4.262-17.043 8.594-17.043 8.594z" style="fill:#052744;fill-opacity:1;fill-rule:nonzero;stroke:none" transform="matrix(1.33333 0 0 1.33333 -9.184 -11.136)"/><path d="M8.434-44.375v-69.348l60.062-34.683 60.059 34.683v69.348L68.496-9.691z" style="fill:none;stroke:#fff;stroke-width:3.09165;stroke-linecap:round;stroke-linejoin:round;stroke-miterlimit:4;stroke-dasharray:none;stroke-opacity:1" transform="matrix(1.33333 0 0 -1.33333 -9.184 -11.136)"/><path d="m78.055 133.312 1.797 3.11.625-.36-1.313-2.265c.078-.453.234-.656.547-.844.312-.172.687-.125.984.391l1.125 1.937.61-.359-1.313-2.266c.094-.344.266-.687.485-.781.343-.203.781-.109 1.046.344l1.125 1.937.61-.359-1.141-1.969c-.422-.719-1.094-.984-1.734-.625-.438.266-.61.719-.703 1.188-.438-.25-.875-.266-1.266-.047-.281.172-.484.5-.625 1.015l-.234-.406zM85.816 129.02c-.375.046-.671.093-1.031.296-.953.547-1.172 1.547-.578 2.579.531.921 1.578 1.187 2.516.656.312-.188.64-.516.797-.735l-.344-.609c-.235.328-.438.547-.703.703-.641.375-1.282.219-1.657-.437-.359-.625-.234-1.266.344-1.594.266-.156.547-.234 1.047-.188zM88.73 128.812l-1.687.969.375.657 1.687-.969zM90.641 126.301c-.438.015-.782.094-1.079.265-.624.36-.828.907-.515 1.438.484.844 2.062.234 2.312.656.125.235 0 .469-.265.641-.235.14-.688.203-1.25.156l.39.672c.516-.031.875-.125 1.25-.344.61-.344.797-.969.485-1.515-.188-.313-.5-.422-1.203-.469-.719 0-1.032-.047-1.11-.188-.094-.156-.015-.375.25-.515.203-.125.61-.235 1.078-.188zM91.73 124.539l-.5 1.813.032.062.547-.312.953 1.64c.328.563.906.781 1.593.391.204-.11.454-.391.594-.641l-.328-.562c-.141.297-.328.5-.547.625-.187.109-.515.156-.734-.203l-.922-1.61 1-.578-.313-.547-1 .578zM97.598 125.418c-.078.187-.188.328-.235.359-.078.047-.14.032-.218-.093l-.922-1.594c-.407-.703-1.094-.75-1.735-.375-.437.25-.703.594-.765 1.015l.39.688c.094-.531.344-.891.688-1.094.375-.219.64-.156.859.235l.094.171-.422.5c-.391.469-.859.985-.5 1.594a.898.898 0 0 0 1.234.328c.282-.172.485-.437.625-.797.188.172.407.188.688.032.187-.11.281-.219.437-.578zm-1.125.547c-.063.265-.172.453-.375.578-.266.141-.547.062-.688-.188-.219-.359.125-.812.547-1.296zM97.285 122.207l-.625.359 1.797 3.11.625-.36-1.297-2.234c.094-.484.235-.734.5-.891.375-.218.813-.046 1.063.391l1.125 1.938.609-.36-1.109-1.922c-.5-.859-1.203-.984-1.797-.656a1.377 1.377 0 0 0-.641 1.031h-.015zM101.805 122.719a.46.46 0 0 0-.157.64.488.488 0 0 0 .657.188.502.502 0 0 0 .172-.672.496.496 0 0 0-.672-.156zM103.07 118.762c-.937.531-1.234 1.656-.718 2.562.546.938 1.656 1.235 2.609.688 1-.578 1.281-1.657.719-2.625-.532-.938-1.625-1.188-2.61-.625zm.328.562c.61-.359 1.313-.172 1.657.438.39.672.234 1.328-.422 1.703-.61.344-1.281.125-1.656-.516-.344-.609-.172-1.281.421-1.625zM105.535 117.438l1.797 3.109.625-.359-.953-1.641c-.297-.531-.203-1.125.219-1.375.14-.078.468-.11.75-.031l.031-.719c-.406-.11-.719-.094-.969.047-.297.172-.453.578-.453 1.328h-.016l-.406-.719zM110.738 114.441l-1.281.735c-.844.484-1.125 1.187-.75 1.844.141.234.313.39.516.484.203.125.453.156.734.109v.016c-.25.25-.344.516-.234.719.093.156.25.218.547.234-.454.438-.547.844-.282 1.313.328.546 1.141.593 1.985.109.922-.531 1.25-1.234.906-1.844-.234-.406-.672-.609-1.422-.328-.703.219-1.062.313-1.172.141-.203-.375.766-.657.906-1.344.079-.219.047-.609-.109-.875-.141-.25-.328-.375-.719-.484l.641-.36zm-.234 1.579c.187.343.062.718-.266.921-.39.219-.75.141-.953-.203-.172-.312-.062-.718.281-.922.313-.187.766-.093.938.204zm1.797 2.531c.172.281-.063.64-.594.953-.562.328-.969.328-1.156.016-.156-.266.031-.641.437-.875.391-.219 1.094-.5 1.313-.094z" style="fill:#fff;fill-opacity:1;fill-rule:nonzero;stroke:none" transform="matrix(1.33333 0 0 1.33333 -9.184 -11.136)"/></svg>